# xmcd
#
# Track frame offsets:
#	150
#	11471
#	27122
#	42329
#	54235
#	68206
#	82076
#	94081
#	110912
#	124364
#
# Disc length: 1801 seconds
#
# Revision: 0
# Processed by: cddbd v1.5.2PL0 Copyright (c) Steve Scherf et al.
# Submitted via: EasyCDDAExtractor 7.1.2.1
#
DISCID=8307070a
DTITLE=Conway Twitty - The Legend Disc 1 of 2
DYEAR=2003
DGENRE=Contry
TTITLE0=Hello Darlin'
TTITLE1=Touch The Hand
TTITLE2=Lost Her Love On The Last Date
TTITLE3=(Lying Here With) Linda On My Mind
TTITLE4=Play The Games That Daddies Play
TTITLE5=Baby's Gone
TTITLE6=I'm Not Through Lovin You Yet
TTITLE7=Don't Cry Joni
TTITLE8=Danny Boy
TTITLE9=I Can't Believe She Gives It All To Me
EXTD=
EXTT0=
EXTT1=
EXTT2=
EXTT3=
EXTT4=
EXTT5=
EXTT6=
EXTT7=
EXTT8=
EXTT9=
PLAYORDER=
